<?xml version="1.0" standalone="no"?>
<!DOCTYPE svg PUBLIC "-//W3C//DTD SVG 20010904//EN"
 "http://www.w3.org/TR/2001/REC-SVG-20010904/DTD/svg10.dtd">
<svg version="1.0" xmlns="http://www.w3.org/2000/svg"
 width="1024.000000pt" height="1024.000000pt" viewBox="0 0 1024.000000 1024.000000"
 preserveAspectRatio="xMidYMid meet">
<metadata>
Created by potrace 1.16, written by Peter Selinger 2001-2019
</metadata>
<g transform="translate(0.000000,1024.000000) scale(0.100000,-0.100000)"
fill="#000000" stroke="none">
<path d="M2056 9344 c-18 -18 -20 -47 -6 -75 16 -29 75 -26 95 5 37 56 -42
118 -89 70z"/>
<path d="M5660 9025 l0 -325 50 0 50 0 1 148 c0 177 9 210 62 236 33 16 45 17
77 7 57 -17 65 -46 65 -233 l0 -158 54 0 54 0 -5 185 c-5 155 -9 191 -25 222
-24 46 -74 73 -135 73 -58 0 -86 -10 -120 -45 l-28 -28 0 122 0 121 -50 0 -50
0 0 -325z"/>
<path d="M8070 9025 l0 -325 49 0 49 0 4 158 c4 180 14 212 72 232 43 14 81 4
106 -27 18 -23 20 -41 20 -194 l0 -169 56 0 56 0 -4 183 c-4 206 -14 244 -78
279 -68 36 -174 16 -217 -41 -10 -13 -12 7 -13 107 l0 122 -50 0 -50 0 0 -325z"/>
<path d="M1409 9303 c-26 -69 -219 -596 -219 -599 0 -2 24 -4 54 -4 l54 0 27
80 27 80 123 0 123 0 27 -80 27 -80 54 0 c30 0 54 3 54 8 -1 4 -51 144 -113
312 l-112 305 -58 3 c-55 3 -58 2 -68 -25z m115 -218 c20 -61 36 -113 36 -118
0 -4 -38 -7 -85 -7 -47 0 -85 3 -85 8 0 22 84 242 90 235 4 -4 24 -58 44 -118z"/>
<path d="M5369 9283 c0 -5 0 -32 1 -60 l1 -53 -41 0 -41 0 3 -42 c3 -41 4 -42
38 -43 l35 0 5 -162 c5 -161 5 -163 32 -190 24 -23 38 -28 98 -31 76 -5 71 -8
74 58 1 28 -1 30 -35 30 -60 0 -68 17 -70 165 l-1 130 53 1 54 1 3 42 3 41
-55 0 -56 0 0 60 0 60 -50 0 c-27 0 -50 -3 -51 -7z"/>
<path d="M2387 9170 c-79 -24 -136 -103 -144 -201 -16 -171 87 -290 239 -276
82 7 144 46 177 112 22 42 26 63 26 135 0 92 -18 142 -67 187 -50 47 -153 66
-231 43z m128 -82 c45 -20 70 -74 69 -148 -1 -105 -42 -160 -119 -160 -77 0
-117 54 -117 155 0 123 77 194 167 153z"/>
<path d="M3464 9170 c-12 -4 -31 -21 -43 -36 l-21 -27 0 32 c0 31 -1 31 -50
31 l-50 0 0 -235 0 -235 50 0 50 0 0 145 c0 160 10 201 54 230 17 12 40 16 71
13 l45 -3 0 47 0 48 -42 -1 c-24 0 -53 -4 -64 -9z"/>
<path d="M3795 9164 c-16 -8 -38 -25 -47 -37 l-18 -22 0 33 c0 32 0 32 -50 32
l-50 0 0 -235 0 -235 53 0 52 0 -3 106 c-7 215 23 289 114 289 38 0 50 -5 70
-28 23 -27 24 -33 24 -198 l0 -169 50 0 50 0 0 183 c0 211 -11 251 -73 280
-44 21 -132 22 -172 1z"/>
<path d="M4270 9169 c-81 -34 -130 -106 -138 -204 -9 -114 36 -206 122 -253
44 -23 159 -22 209 2 39 19 80 65 91 101 5 19 2 20 -47 16 -36 -2 -60 -10 -80
-27 -38 -32 -103 -33 -142 -2 -25 20 -55 73 -55 98 0 6 60 10 171 10 l172 0
-6 57 c-8 75 -43 141 -95 178 -36 24 -54 30 -110 32 -37 2 -78 -2 -92 -8z
m145 -91 c23 -18 55 -72 55 -93 0 -3 -54 -5 -120 -5 -81 0 -120 4 -120 11 0
26 35 81 59 94 39 21 94 18 126 -7z"/>
<path d="M6345 9169 c-11 -6 -30 -23 -42 -38 l-23 -26 0 33 c0 32 0 32 -50 32
l-50 0 0 -235 0 -235 50 0 50 0 0 145 c0 160 10 201 54 230 19 13 40 16 76 13
l50 -5 0 48 0 49 -47 0 c-27 0 -57 -5 -68 -11z"/>
<path d="M6610 9164 c-53 -23 -98 -72 -116 -127 -22 -66 -15 -176 14 -234 39
-76 125 -120 213 -110 130 16 203 107 202 254 -1 139 -89 233 -218 233 -33 -1
-76 -8 -95 -16z m155 -86 c72 -57 75 -211 4 -277 -17 -15 -36 -21 -70 -21 -41
0 -51 4 -77 35 -48 53 -54 153 -16 227 29 56 110 75 159 36z"/>
<path d="M7618 9160 c-60 -32 -95 -96 -104 -189 -7 -66 14 -152 47 -195 65
-83 206 -88 268 -10 l21 27 0 -45 c0 -85 -32 -133 -91 -138 -59 -5 -82 1 -111
30 -24 25 -38 30 -75 30 -45 0 -45 0 -40 -30 17 -80 82 -120 198 -120 95 1
148 23 186 81 l28 42 3 264 3 263 -50 0 c-51 0 -51 0 -51 -32 l0 -32 -35 34
c-31 30 -42 34 -98 37 -47 3 -71 -1 -99 -17z m173 -80 c36 -20 51 -67 47 -148
-3 -69 -6 -76 -36 -103 -45 -40 -99 -40 -144 0 -27 24 -32 36 -36 88 -8 110
32 173 110 173 22 0 48 -5 59 -10z"/>
<path d="M2050 8926 c0 -135 -4 -256 -10 -270 -7 -20 -16 -26 -40 -26 -29 0
-30 -2 -30 -45 l0 -45 45 0 c54 0 89 15 112 49 16 23 18 58 21 304 l3 277 -50
0 -51 0 0 -244z"/>
<path d="M2772 8997 c4 -151 7 -178 26 -217 48 -100 182 -119 261 -38 l31 32
0 -37 0 -37 48 0 47 0 0 235 0 235 -52 0 -53 0 0 -151 c0 -116 -4 -159 -15
-184 -30 -61 -107 -74 -156 -26 l-29 29 0 166 0 166 -56 0 -57 0 5 -173z"/>
<path d="M4675 8943 c46 -125 86 -238 90 -250 9 -33 -34 -73 -80 -73 -35 0
-35 0 -35 -45 l0 -45 42 0 c49 0 116 31 140 64 10 13 58 141 108 285 50 143
93 268 97 277 5 13 -3 15 -47 12 l-53 -3 -55 -182 c-30 -101 -58 -183 -62
-183 -4 0 -32 82 -62 183 l-56 182 -54 3 -55 3 82 -228z"/>
<path d="M7020 8983 c3 -122 9 -196 17 -209 54 -93 193 -109 265 -30 l28 30 0
-37 0 -37 50 0 50 0 0 235 0 235 -52 0 -53 0 -1 -150 c-1 -96 -6 -160 -14
-180 -25 -60 -107 -79 -157 -36 l-28 24 -3 171 -3 171 -52 0 -52 0 5 -187z"/>
<path d="M1433 7951 c-73 -25 -127 -63 -168 -119 -70 -95 -65 11 -65 -1508 0
-1360 0 -1374 20 -1428 28 -73 99 -147 175 -183 l60 -28 1540 0 1540 0 58 29
c68 35 140 108 170 174 l22 47 0 1390 0 1390 -21 46 c-26 55 -85 123 -135 155
-90 57 -10 54 -1643 54 -1416 -1 -1504 -2 -1553 -19z m3078 -122 c52 -16 108
-64 130 -113 18 -39 19 -99 19 -1391 0 -1292 -1 -1352 -19 -1391 -22 -49 -78
-97 -130 -113 -28 -8 -440 -11 -1527 -11 l-1489 0 -51 24 c-28 13 -61 38 -74
56 -52 73 -50 26 -50 1435 0 1460 -4 1378 67 1447 75 73 -54 67 1597 68 1087
0 1499 -3 1527 -11z"/>
<path d="M2175 7537 c-94 -31 -165 -92 -206 -175 -20 -39 -24 -62 -24 -142 0
-83 4 -101 27 -146 32 -60 93 -118 157 -148 36 -16 65 -21 136 -21 97 0 136
14 204 71 l33 27 207 -207 207 -206 -110 -110 -110 -110 -58 0 c-34 0 -58 4
-58 11 0 28 -58 124 -98 160 -68 64 -122 84 -222 84 -73 0 -92 -4 -135 -27
-62 -32 -129 -103 -158 -166 -16 -36 -22 -67 -22 -127 0 -71 4 -88 33 -147 80
-163 266 -228 426 -149 76 37 125 90 157 167 l23 54 60 0 61 0 102 -102 103
-103 -201 -201 -202 -202 -45 34 c-70 54 -108 67 -197 68 -101 1 -165 -25
-230 -95 -68 -73 -90 -127 -90 -224 0 -95 29 -169 92 -232 66 -66 123 -88 228
-88 75 0 98 4 140 25 66 32 126 96 156 164 l24 56 422 0 422 0 11 -40 c6 -21
25 -58 43 -82 154 -202 438 -176 549 50 29 58 33 77 33 143 0 67 -4 84 -35
144 -98 193 -327 242 -483 105 l-38 -33 -142 139 c-78 77 -171 167 -207 201
l-65 62 105 106 105 105 60 0 60 0 18 -51 c23 -63 80 -126 149 -165 48 -26 62
-29 148 -29 86 0 100 3 148 29 237 132 234 465 -6 583 -49 24 -69 28 -142 28
-72 -1 -93 -5 -136 -27 -65 -34 -137 -114 -160 -178 l-18 -50 -51 0 -50 0
-110 110 -110 110 204 204 204 204 43 -33 c132 -101 313 -82 427 45 77 86 102
212 63 327 -33 100 -147 189 -263 208 -135 21 -305 -88 -345 -222 l-12 -43
-421 0 -421 0 -18 50 c-25 68 -103 152 -172 185 -66 31 -162 41 -219 22z m158
-130 c45 -19 104 -88 117 -138 32 -119 -63 -239 -190 -239 -121 0 -198 89
-188 216 11 128 144 210 261 161z m1498 -10 c29 -16 54 -40 74 -72 63 -102 20
-244 -88 -284 -40 -16 -123 -14 -156 3 -105 55 -141 195 -75 289 58 82 160
109 245 64z m-396 -268 c6 -19 -26 -55 -210 -238 l-217 -216 -214 220 c-118
121 -214 228 -214 238 0 16 27 17 424 17 l425 0 6 -21z m-1065 -663 c41 -27
90 -112 90 -155 0 -76 -53 -161 -117 -187 -18 -8 -56 -14 -84 -14 -204 0 -261
284 -74 372 54 25 133 19 185 -16z m1456 15 c81 -37 126 -132 105 -218 -26
-101 -106 -159 -208 -151 -65 6 -117 43 -150 108 -83 162 87 336 253 261z
m-722 -80 c103 -104 105 -84 -18 -204 l-80 -78 -93 93 -93 93 92 92 c51 51 95
93 98 93 3 0 45 -40 94 -89z m330 -924 c-6 -16 -40 -17 -430 -17 l-424 0 0 22
c0 16 62 85 212 235 l213 213 218 -218 c164 -164 216 -222 211 -235z m-1064
89 c55 -36 95 -121 86 -184 -8 -58 -49 -119 -101 -150 -33 -18 -52 -22 -101
-20 -119 7 -191 89 -182 208 5 72 40 122 109 158 57 30 133 25 189 -12z m1481
0 c57 -38 84 -90 84 -161 0 -76 -27 -129 -84 -170 -37 -26 -52 -30 -106 -30
-54 0 -69 4 -106 30 -138 98 -104 303 59 356 42 13 112 1 153 -25z"/>
<path d="M6950 7842 c-166 -44 -301 -180 -345 -349 -66 -252 94 -521 349 -589
69 -19 190 -18 257 2 239 70 396 319 350 556 -54 276 -336 452 -611 380z m275
-146 c171 -78 254 -272 190 -445 -27 -73 -109 -162 -183 -198 -51 -25 -68 -28
-157 -28 -84 0 -107 4 -147 24 -75 37 -134 95 -170 169 -30 61 -33 74 -33 162
0 85 3 101 28 150 49 95 124 157 225 186 69 20 179 11 247 -20z"/>
<path d="M6675 6864 c-74 -18 -149 -51 -417 -183 -344 -168 -388 -199 -451
-318 -42 -81 -249 -551 -267 -607 -45 -142 61 -301 215 -323 72 -9 132 13 190
71 45 46 62 78 164 311 62 143 117 264 122 270 9 9 142 65 146 61 1 0 -12 -48
-28 -106 -75 -264 -121 -511 -118 -629 2 -59 -8 -97 -98 -373 l-101 -307 -64
-83 c-208 -267 -436 -578 -446 -607 -44 -127 24 -275 154 -333 95 -42 190 -30
267 33 45 37 544 672 574 731 12 24 46 121 76 216 30 95 57 174 59 175 3 1 77
-68 164 -153 l158 -154 97 -393 c105 -430 107 -433 195 -491 68 -46 141 -58
222 -38 124 31 211 127 212 234 0 58 -205 942 -229 990 -11 20 -115 147 -233
281 -117 134 -219 252 -227 262 -12 17 -9 38 24 167 20 81 40 150 44 154 4 4
115 -58 246 -138 296 -180 325 -195 394 -201 105 -10 196 36 247 123 22 37 28
63 32 123 3 68 1 82 -25 131 -34 67 -63 89 -317 244 -107 65 -201 126 -209
135 -8 9 -72 128 -142 264 -70 136 -144 270 -166 297 -51 64 -110 104 -204
135 -74 25 -213 41 -260 29z m260 -163 c36 -18 79 -49 98 -72 19 -21 94 -154
166 -294 73 -141 144 -268 157 -284 13 -16 86 -66 161 -112 324 -194 363 -226
363 -294 0 -102 -100 -168 -193 -127 -39 17 -553 325 -569 341 -4 3 9 68 29
143 34 131 35 138 19 163 -22 34 -79 35 -100 3 -13 -21 -192 -708 -196 -753
-1 -11 -2 -28 -1 -37 0 -10 63 -86 139 -170 76 -84 188 -210 248 -281 l110
-127 103 -439 c56 -242 102 -457 103 -479 1 -70 -48 -119 -130 -128 -61 -7
-127 26 -153 76 -10 19 -59 204 -109 410 l-92 375 -348 350 c-343 344 -349
351 -366 410 -31 110 -6 264 115 705 28 102 51 193 51 202 0 30 -37 42 -84 28
-101 -30 -295 -112 -315 -134 -12 -13 -74 -142 -137 -287 -127 -292 -152 -329
-219 -329 -55 0 -94 25 -116 76 -16 34 -18 51 -11 77 15 50 247 569 275 614
39 61 93 103 202 153 55 26 183 89 285 140 236 118 244 121 357 116 80 -3 102
-8 158 -35z m-408 -1703 l23 -24 -66 -209 c-36 -116 -71 -219 -77 -230 -20
-39 -519 -675 -544 -695 -58 -45 -125 -38 -184 21 -35 35 -39 44 -39 91 0 51
2 54 144 242 79 105 191 253 250 330 l107 138 50 157 c28 86 67 206 87 268
l36 112 95 -89 c53 -48 106 -99 118 -112z"/>
<path d="M2812 4459 c-62 -35 -81 -67 -64 -104 20 -43 52 -50 103 -25 81 42
99 58 99 95 0 70 -53 83 -138 34z"/>
<path d="M2489 4245 c-72 -47 -100 -113 -63 -149 28 -29 68 -19 128 30 53 44
61 58 56 94 -3 26 -32 50 -59 49 -14 0 -42 -11 -62 -24z"/>
<path d="M2194 3943 c-9 -10 -28 -42 -42 -71 -27 -61 -24 -94 13 -118 20 -13
28 -14 52 -2 29 14 78 85 88 128 14 59 -68 105 -111 63z"/>
<path d="M8200 3820 c-40 -40 -28 -63 96 -183 l116 -112 -964 -6 c-909 -5
-971 -7 -1103 -27 -449 -67 -623 -107 -1210 -279 -198 -58 -472 -137 -610
-175 -137 -39 -258 -77 -267 -86 -37 -32 -10 -102 38 -102 39 0 296 71 944
262 484 142 745 203 1070 250 150 21 188 22 1123 28 532 3 967 3 967 0 0 -3
-49 -55 -110 -115 -86 -85 -110 -116 -110 -137 0 -34 40 -67 73 -61 37 7 377
353 377 383 0 18 -46 70 -178 202 -190 190 -208 202 -252 158z"/>
<path d="M2064 3545 c-29 -44 -4 -172 37 -198 23 -14 66 0 84 27 14 21 14 34
5 88 -15 85 -31 108 -75 108 -26 0 -39 -6 -51 -25z"/>
<path d="M2245 3188 c-27 -15 -35 -28 -35 -60 0 -37 110 -131 148 -126 34 4
66 49 57 78 -8 26 -54 72 -100 101 -35 22 -43 23 -70 7z"/>
<path d="M2585 2965 c-49 -48 -23 -92 68 -119 71 -21 100 -20 120 2 25 27 22
78 -5 96 -19 12 -131 46 -152 46 -4 0 -18 -11 -31 -25z"/>
<path d="M3926 2905 c-101 -18 -134 -65 -81 -115 24 -23 28 -23 95 -13 87 14
120 33 120 71 0 15 -4 32 -8 38 -7 11 -47 35 -54 33 -2 -1 -34 -7 -72 -14z"/>
<path d="M2988 2873 c-35 -38 -16 -96 35 -108 12 -3 51 -6 86 -8 58 -2 65 0
83 24 42 56 0 95 -112 105 -67 5 -77 4 -92 -13z"/>
<path d="M3443 2860 c-35 -14 -55 -53 -44 -82 12 -33 28 -38 115 -38 87 0 116
16 116 64 0 50 -25 66 -101 65 -35 0 -74 -4 -86 -9z"/>
<path d="M6047 2112 c-36 -40 -9 -102 45 -102 53 0 79 74 36 104 -30 21 -61
20 -81 -2z"/>
<path d="M7270 2110 c-53 -53 22 -134 82 -87 26 19 27 66 2 91 -21 22 -60 20
-84 -4z"/>
<path d="M3200 1983 l0 -127 -32 31 c-56 54 -124 67 -196 38 -83 -35 -123
-103 -130 -218 -6 -96 10 -154 55 -207 46 -54 81 -70 148 -70 62 0 86 9 128
48 l27 26 0 -38 0 -37 53 3 52 3 3 338 2 337 -55 0 -55 0 0 -127z m-58 -160
c35 -31 51 -74 51 -138 0 -73 -21 -118 -66 -145 -90 -55 -177 14 -177 139 0
107 56 177 133 167 21 -2 48 -13 59 -23z"/>
<path d="M3942 1773 l3 -338 53 -3 52 -3 0 340 0 341 -55 0 -55 0 2 -337z"/>
<path d="M4720 1984 l0 -126 -30 30 c-39 39 -90 56 -152 50 -59 -6 -111 -44
-148 -109 -22 -39 -25 -56 -25 -144 0 -83 4 -107 22 -140 43 -81 98 -115 184
-115 57 0 98 18 128 56 l21 27 0 -42 0 -41 50 0 50 0 0 340 0 340 -50 0 -50 0
0 -126z m-63 -159 c35 -23 53 -74 53 -148 0 -71 -24 -120 -70 -145 -29 -15
-94 -10 -117 10 -27 22 -53 90 -53 140 0 132 93 204 187 143z"/>
<path d="M5470 1770 l0 -340 50 0 50 0 0 40 0 41 34 -34 c55 -55 144 -68 217
-31 143 72 160 358 27 454 -79 57 -187 46 -245 -25 l-28 -34 2 135 1 134 -54
0 -54 0 0 -340z m309 44 c78 -65 59 -247 -29 -284 -59 -25 -125 2 -156 62 -18
36 -18 141 1 178 37 72 125 94 184 44z"/>
<path d="M1520 1775 c0 -179 -1 -328 -2 -332 -2 -5 21 -9 49 -11 l53 -3 2 248
3 248 79 -205 c120 -313 108 -290 154 -290 l39 0 94 244 94 245 3 -245 2 -245
53 3 52 3 3 333 2 332 -68 0 -69 0 -98 -252 c-54 -139 -101 -256 -105 -260 -3
-4 -50 109 -105 252 l-100 260 -67 0 -68 0 0 -325z"/>
<path d="M2450 1928 c-50 -17 -126 -95 -139 -143 -16 -58 -14 -165 4 -216 32
-90 111 -143 215 -143 132 0 225 88 237 224 11 115 -37 219 -119 261 -50 25
-147 34 -198 17z m139 -93 c60 -30 87 -142 57 -228 -19 -51 -42 -75 -83 -86
-75 -21 -143 31 -157 118 -23 144 78 251 183 196z"/>
<path d="M3546 1926 c-57 -21 -87 -46 -121 -101 -28 -45 -30 -55 -30 -139 1
-98 13 -135 64 -189 96 -104 281 -92 358 22 35 52 31 61 -28 61 -43 0 -57 -5
-86 -30 -59 -53 -154 -36 -187 34 -32 67 -35 66 159 66 l175 0 0 44 c0 90 -51
181 -122 217 -53 27 -132 33 -182 15z m133 -91 c27 -13 61 -68 61 -97 0 -10
-26 -13 -120 -13 -132 0 -133 0 -104 61 28 59 102 81 163 49z"/>
<path d="M5071 1925 c-55 -17 -116 -76 -137 -132 -23 -60 -16 -192 15 -251 75
-146 314 -157 396 -18 14 24 25 46 25 49 0 4 -26 7 -57 7 -50 0 -60 -3 -78
-26 -15 -19 -33 -27 -66 -31 -74 -8 -119 24 -143 105 l-7 22 181 0 181 0 -6
58 c-10 78 -34 130 -83 174 -62 56 -133 70 -221 43z m149 -102 c29 -26 56 -90
42 -95 -4 -2 -59 -1 -123 2 l-117 5 12 35 c25 76 128 105 186 53z"/>
<path d="M6378 1930 c-65 -20 -114 -65 -124 -117 -6 -28 -5 -28 43 -25 29 3
56 11 69 23 67 62 171 35 188 -47 l7 -31 -99 -6 c-161 -8 -232 -55 -232 -152
0 -137 195 -205 298 -104 l32 31 0 -36 0 -36 50 0 50 0 0 191 c0 200 -2 212
-48 262 -43 46 -160 70 -234 47z m182 -292 c-1 -33 -41 -98 -69 -112 -67 -35
-151 -5 -151 54 0 50 39 70 136 70 61 0 84 -3 84 -12z"/>
<path d="M6863 1924 c-23 -8 -56 -31 -73 -50 -53 -60 -38 -168 29 -203 9 -5
57 -17 106 -25 93 -16 125 -35 125 -72 0 -60 -112 -86 -168 -39 -39 33 -122
37 -122 6 0 -28 43 -76 87 -96 57 -27 159 -24 219 6 58 29 84 62 90 115 6 49
-20 102 -62 126 -18 10 -69 25 -114 33 -45 8 -89 20 -96 26 -20 16 -17 63 4
81 38 34 132 26 152 -12 8 -16 21 -20 60 -20 35 0 50 4 50 14 0 23 -44 79 -78
99 -45 26 -153 32 -209 11z"/>
<path d="M7654 1921 c-23 -10 -49 -29 -58 -42 l-16 -23 0 37 0 37 -50 0 -50 0
0 -251 0 -250 53 3 52 3 5 172 c4 154 7 174 26 200 27 36 83 50 126 32 49 -20
58 -56 58 -244 l0 -166 51 3 51 3 -2 195 c-1 229 -7 251 -80 288 -54 27 -111
28 -166 3z"/>
<path d="M8135 1929 c-38 -11 -87 -58 -111 -107 -15 -28 -19 -60 -19 -133 0
-89 2 -99 30 -144 37 -60 98 -95 166 -95 61 0 93 13 128 51 l28 30 -4 -53 c-3
-29 -9 -66 -15 -82 -27 -69 -172 -74 -208 -6 -8 16 -21 20 -60 20 -56 0 -60
-7 -36 -65 23 -54 83 -87 169 -93 90 -5 147 10 194 51 61 53 63 67 63 362 l0
265 -56 0 -56 0 4 -35 c2 -19 3 -35 2 -35 0 0 -17 15 -37 34 -47 44 -110 56
-182 35z m140 -93 c44 -19 65 -53 72 -119 10 -101 -30 -165 -109 -174 -37 -4
-49 -1 -76 22 -38 32 -56 91 -48 159 7 60 28 93 69 111 41 18 50 18 92 1z"/>
<path d="M6040 1925 c0 -3 0 -114 -1 -247 l0 -243 51 -3 50 -3 0 250 0 251
-50 0 c-27 0 -50 -2 -50 -5z"/>
<path d="M7260 1680 l0 -250 50 0 50 0 0 250 0 250 -50 0 -50 0 0 -250z"/>
</g>
</svg>
